<svg width="59" height="24" viewBox="0 0 59 24" fill="none" xmlns="http://www.w3.org/2000/svg">
<path fill-rule="evenodd" clip-rule="evenodd" d="M0 0H4.695L4.69778 24H0V0Z" fill="#1ECC97"/>
<path fill-rule="evenodd" clip-rule="evenodd" d="M2.34888 15.6279L5.70443 12.5023L14.9881 24H9.39554L2.34888 15.6279Z" fill="url(#paint0_linear)"/>
<path fill-rule="evenodd" clip-rule="evenodd" d="M0 17.8605L8.94815 8.70697H14.7644L0.447407 24H0L0 17.8605Z" fill="#1ECC97"/>
<path fill-rule="evenodd" clip-rule="evenodd" d="M18.4438 8.79515L23.4271 8.79515V23.9509H18.4438V8.79515Z" fill="#1ECC97"/>
<path fill-rule="evenodd" clip-rule="evenodd" d="M20.8636 4.82345C22.2794 4.82345 23.4271 3.74368 23.4271 2.41172C23.4271 1.07977 22.2794 0 20.8636 0C19.4478 0 18.3 1.07977 18.3 2.41172C18.3 3.74368 19.4478 4.82345 20.8636 4.82345Z" fill="#1ECC97"/>
<path fill-rule="evenodd" clip-rule="evenodd" d="M29.9214 15.596L33.2377 12.4768L42.4127 23.9509H36.8856L29.9214 15.596Z" fill="url(#paint1_linear)"/>
<path fill-rule="evenodd" clip-rule="evenodd" d="M27.8501 17.8239L36.6935 8.68916H42.4417L28.2923 23.9509H27.8501L27.8501 17.8239Z" fill="#1ECC97"/>
<path fill-rule="evenodd" clip-rule="evenodd" d="M27.8501 0H32.5479V24H27.8501V0Z" fill="#1ECC97"/>
<path fill-rule="evenodd" clip-rule="evenodd" d="M58.5462 16.5C58.5462 20.6421 55.1372 24 50.9319 24C46.7267 24 43.3176 20.6421 43.3176 16.5C43.3176 12.3579 46.7267 9 50.9319 9C55.1372 9 58.5462 12.3579 58.5462 16.5ZM54.4853 16.5C54.4853 18.5711 52.9512 20.25 51.0588 20.25C49.1665 20.25 47.6324 18.5711 47.6324 16.5C47.6324 14.4289 49.1665 12.75 51.0588 12.75C52.9512 12.75 54.4853 14.4289 54.4853 16.5Z" fill="#1ECC97"/>
<defs>
<linearGradient id="paint0_linear" x1="14.4909" y1="20.3691" x2="10.1629" y2="14.4626" gradientUnits="userSpaceOnUse">
<stop stop-color="#1ECC97"/>
<stop offset="1" stop-color="#24B488"/>
</linearGradient>
<linearGradient id="paint1_linear" x1="41.9213" y1="20.3275" x2="37.5896" y2="14.4733" gradientUnits="userSpaceOnUse">
<stop stop-color="#1ECC97"/>
<stop offset="1" stop-color="#24B488"/>
</linearGradient>
</defs>
</svg>
